<?xml version="1.0" standalone="no"?>
<!DOCTYPE svg PUBLIC "-//W3C//DTD SVG 20010904//EN"
 "http://www.w3.org/TR/2001/REC-SVG-20010904/DTD/svg10.dtd">
<svg version="1.0" xmlns="http://www.w3.org/2000/svg"
 width="500.000000pt" height="500.000000pt" viewBox="0 0 500.000000 500.000000"
 preserveAspectRatio="xMidYMid meet">

<g transform="translate(0.000000,500.000000) scale(0.100000,-0.100000)"
fill="#000000" stroke="none">
<path d="M0 2500 l0 -2500 2500 0 2500 0 0 2500 0 2500 -2500 0 -2500 0 0
-2500z m859 344 c22 -9 41 -17 41 -19 0 -1 -9 -23 -20 -49 l-21 -46 -36 15
c-47 20 -137 20 -157 0 -30 -31 -4 -51 98 -75 113 -26 163 -76 153 -152 -12
-91 -81 -133 -217 -133 -65 1 -96 6 -132 22 -27 12 -48 27 -48 33 0 6 9 28 20
50 l20 39 46 -20 c86 -39 197 -24 178 24 -5 15 -36 26 -153 57 -92 24 -130
104 -91 186 23 46 52 67 117 84 51 12 150 5 202 -16z m311 -219 l0 -235 -65 0
-65 0 0 235 0 235 65 0 65 0 0 -235z m335 105 c43 -71 81 -130 85 -130 4 0 42
59 85 130 l77 130 54 0 54 0 0 -235 0 -235 -60 0 -59 0 -3 120 -3 120 -55 -92
c-52 -86 -58 -93 -90 -96 -34 -2 -36 0 -90 90 l-55 92 -3 -117 -3 -117 -59 0
-60 0 0 235 0 235 53 0 53 0 79 -130z m799 119 c119 -30 170 -152 106 -257
-27 -44 -93 -72 -186 -79 l-74 -6 0 -58 0 -59 -65 0 -65 0 0 235 0 235 121 0
c66 0 140 -5 163 -11z m396 -171 l0 -183 110 3 110 4 0 -56 0 -56 -175 0 -175
0 0 235 0 235 65 0 65 0 0 -182z m470 -53 l0 -235 -65 0 -65 0 0 235 0 235 65
0 65 0 0 -235z m510 185 l0 -50 -115 0 -115 0 0 -55 0 -55 105 0 105 0 0 -50
0 -50 -105 0 -105 0 0 -80 0 -80 -65 0 -65 0 0 235 0 235 180 0 180 0 0 -50z
m259 -40 c30 -49 56 -90 60 -90 3 1 29 40 56 88 l50 87 64 3 c77 4 79 16 -29
-163 l-80 -133 0 -86 0 -86 -67 0 -68 0 3 79 3 80 -88 148 c-48 81 -89 151
-91 155 -2 5 27 8 65 8 l70 0 52 -90z m-1299 -610 l0 -61 -787 3 -788 3 -3 49
c-2 27 -1 54 1 60 3 8 215 10 791 8 l786 -2 0 -60z m236 17 c4 -4 -2 -7 -14
-7 -19 0 -22 -6 -24 -47 l-2 -48 -3 48 c-3 39 -8 47 -24 47 -10 0 -19 4 -19 9
0 10 76 8 86 -2z m172 -5 c-36 -4 -35 -18 2 -37 33 -17 39 -39 14 -49 -23 -9
-52 -7 -59 3 -3 6 7 9 21 8 34 -3 43 19 12 28 -23 8 -38 22 -38 38 0 12 43 25
60 18 10 -4 6 -7 -12 -9z m180 -5 c17 -13 15 -47 -5 -69 -23 -26 -59 -23 -79
7 -37 56 28 105 84 62z m229 -71 c23 -9 41 11 46 52 3 33 4 33 5 -10 2 -39 -1
-48 -18 -53 -46 -15 -64 5 -63 70 1 42 7 38 10 -7 3 -30 9 -48 20 -52z m190
80 c3 -3 -1 -6 -10 -6 -13 0 -17 -10 -17 -45 0 -25 -4 -45 -10 -45 -5 0 -10
20 -10 45 0 34 -4 45 -16 45 -8 0 -13 4 -10 9 6 10 63 8 73 -3z m221 -2 c24
-17 30 -62 10 -82 -16 -16 -63 -15 -75 1 -23 29 -23 48 2 73 28 28 33 29 63 8z
m292 -2 c-42 -6 -47 -21 -11 -33 24 -9 31 -16 29 -33 -3 -24 -38 -33 -65 -16
-15 9 -12 10 14 5 42 -8 51 10 13 30 -52 27 -32 71 25 56 18 -5 17 -6 -5 -9z
m-1420 -42 c0 -27 -4 -50 -10 -50 -5 0 -10 23 -10 50 0 28 5 50 10 50 6 0 10
-22 10 -50z m580 6 c0 -41 2 -45 28 -49 22 -3 20 -4 -10 -6 l-38 -1 0 50 c0
28 5 50 10 50 6 0 10 -20 10 -44z m397 -33 c-2 -16 -4 -3 -4 27 0 30 2 43 4
28 2 -16 2 -40 0 -55z m280 40 l28 -37 6 40 c6 36 6 35 7 -16 l1 -55 -34 39
-35 39 0 -36 c0 -21 -4 -37 -10 -37 -5 0 -10 23 -10 50 0 28 4 50 9 50 6 0 23
-17 38 -37z"/>
<path d="M2150 2685 l0 -65 54 0 c56 0 93 19 97 50 7 60 -16 80 -92 80 l-59 0
0 -65z"/>
<path d="M3157 2163 c-15 -14 -6 -53 14 -64 18 -9 25 -7 41 9 16 16 18 23 9
41 -11 20 -50 29 -64 14z"/>
<path d="M3812 2158 c-32 -32 8 -80 48 -58 34 18 19 70 -20 70 -9 0 -21 -5
-28 -12z"/>
</g>
</svg>
